<svg id="Layer_1" data-name="Layer 1" xmlns="http://www.w3.org/2000/svg" viewBox="0 0 225 225"><defs><style>.cls-1{fill:none;}.cls-2,.cls-3{fill:#fff;}.cls-3{stroke:#fff;stroke-miterlimit:10;stroke-width:2px;}</style></defs><title>user_2</title><path class="cls-1" d="M797,476v11a15.22,15.22,0,0,1-10,10h-5c-7.18-2.6-10.27-7.66-10.12-15.32a63.49,63.49,0,0,0-1.48-13.85c-8.61-42.17-43.83-70.78-86.9-70.77-46.38,0-85.78,38.47-86.4,84.63-.1,7.63-2.91,12.72-10.1,15.31h-5a15.24,15.24,0,0,1-10-10V476a18.26,18.26,0,0,0,.75-2.86c3-29.31,15.54-53.91,37.79-73,9.2-7.9,20-13.88,30.25-20.82-.17-.19-1-1.19-1.88-2.14-30-32.77-18.41-84.32,22.85-100.73,5.18-2.06,10.82-3,16.24-4.43h13a12.27,12.27,0,0,0,2.3.79,62.23,62.23,0,0,1,51.16,79c-3.14,11-9.1,20.2-17.34,28.54l4,1.82q46.86,22.23,61.63,71.94C794.8,461.2,795.6,468.69,797,476ZM684.61,371.94A37.47,37.47,0,1,0,647,334.73,37.21,37.21,0,0,0,684.61,371.94Z" transform="translate(-572 -272)"/><path class="cls-2" d="M587,497c7.19-2.59,10-7.68,10.1-15.31.62-46.16,40-84.61,86.4-84.63,43.07,0,78.29,28.6,86.9,70.77a63.49,63.49,0,0,1,1.48,13.85c-.15,7.66,2.94,12.72,10.12,15.32Z" transform="translate(-572 -272)"/><path class="cls-2" d="M797,476c-1.4-7.31-2.2-14.8-4.3-21.91Q778,404.44,731.07,382.15l-4-1.82c8.24-8.34,14.2-17.57,17.34-28.54a62.23,62.23,0,0,0-51.16-79A12.27,12.27,0,0,1,691,272H797Z" transform="translate(-572 -272)"/><path class="cls-2" d="M678,272c-5.42,1.45-11.06,2.37-16.24,4.43-41.26,16.41-52.89,68-22.85,100.73.88.95,1.71,1.95,1.88,2.14-10.21,6.94-21,12.92-30.25,20.82-22.25,19.11-34.78,43.71-37.79,73A18.26,18.26,0,0,1,572,476V272Z" transform="translate(-572 -272)"/><path class="cls-2" d="M572,487a15.24,15.24,0,0,0,10,10H572Z" transform="translate(-572 -272)"/><path class="cls-2" d="M787,497a15.22,15.22,0,0,0,10-10v10Z" transform="translate(-572 -272)"/><path class="cls-3" d="M684.61,371.94A37.47,37.47,0,1,1,722,334.51,37.22,37.22,0,0,1,684.61,371.94Z" transform="translate(-572 -272)"/></svg>